# xmcd
#
# Track frame offsets:
#	150
#	9920
#	24652
#	42777
#	57742
#	74085
#	89045
#	98802
#	118537
#	132722
#
# Disc length: 1997 seconds
#
# Revision: 1
# Processed by: cddbd v1.4PL0 Copyright (c) Steve Scherf et al.
# Submitted via: CDmax 1.8
#
DISCID=9107cb0a
DTITLE=Wheatus
DYEAR=2000
DGENRE=Rock
TTITLE0=Truffles
TTITLE1=Sunshine
TTITLE2=Teenage Dirtbag
TTITLE3=A Little Respect
TTITLE4=Hump'em N' Dump'em
TTITLE5=Leroy
TTITLE6=Hey, Mr. Brown
TTITLE7=Love Is Mutt From Hell
TTITLE8=Punk A** B****
TTITLE9=Wannabe Gangstar
EXTD=
EXTT0=
EXTT1=
EXTT2=
EXTT3=
EXTT4=
EXTT5=
EXTT6=
EXTT7=
EXTT8=
EXTT9=
PLAYORDER=
